<?xml version="1.0" encoding="UTF-8" standalone="no"?>
<!DOCTYPE svg PUBLIC "-//W3C//DTD SVG 1.1//EN" "http://www.w3.org/Graphics/SVG/1.1/DTD/svg11.dtd">
<svg width="100%" height="100%" viewBox="0 0 736 552" version="1.1" xmlns="http://www.w3.org/2000/svg" xmlns:xlink="http://www.w3.org/1999/xlink" xml:space="preserve" xmlns:serif="http://www.serif.com/" style="fill-rule:evenodd;clip-rule:evenodd;stroke-linejoin:round;stroke-miterlimit:2;">
    <path d="M130.82,0L156.8,0C157.693,0.267 158.33,0.347 158.71,0.24C158.767,0.224 158.827,0.216 158.886,0.216C159.248,0.216 159.546,0.514 159.546,0.876C159.546,1.093 159.439,1.297 159.26,1.42C148.993,8.507 138.89,8.31 128.95,0.83C128.59,0.557 128.633,0.383 129.08,0.31L130.82,0Z" style="fill:rgb(41,223,222);fill-rule:nonzero;"/>
    <path d="M298.26,0L310.73,0C312.17,4.86 310.83,7.807 306.71,8.84C300.85,10.31 296.05,6.13 298.26,0Z" style="fill:rgb(190,96,209);fill-rule:nonzero;"/>
    <path d="M482.08,0L483.29,0L503.55,20.2C503.7,20.352 503.785,20.557 503.785,20.77C503.785,20.988 503.696,21.198 503.54,21.35L495.34,29.32C495.027,29.627 494.517,29.622 494.21,29.31L473.87,8.94C473.597,8.667 473.6,8.393 473.88,8.12L482.08,0Z" style="fill:rgb(250,119,150);fill-rule:nonzero;"/>
    <path d="M632.59,0L646.13,0C642.53,7.687 643.793,13.027 649.92,16.02C653.81,17.92 657.81,17.1 661,14.41C661.264,14.19 661.654,14.207 661.89,14.45L670.18,22.98C670.413,23.22 670.403,23.447 670.15,23.66C656.32,35.57 635.83,29.72 631.6,11.66C630.593,7.353 630.923,3.467 632.59,0Z" style="fill:rgb(53,212,172);fill-rule:nonzero;"/>
    <path d="M69.43,70.71C69.43,80.974 60.984,89.42 50.72,89.42C40.456,89.42 32.01,80.974 32.01,70.71C32.01,60.446 40.456,52 50.72,52C60.984,52 69.43,60.446 69.43,70.71ZM56.46,70.71C56.46,67.567 53.873,64.98 50.73,64.98C47.587,64.98 45,67.567 45,70.71C45,73.853 47.587,76.44 50.73,76.44C53.873,76.44 56.46,73.853 56.46,70.71Z" style="fill:rgb(190,96,209);fill-rule:nonzero;"/>
    <path d="M353.27,106.49C361.16,95.96 349.3,84.78 338.62,92.35C338.406,92.499 338.112,92.473 337.92,92.29L330.07,84.45C329.84,84.221 329.71,83.909 329.71,83.584C329.71,83.213 329.879,82.861 330.17,82.63C353.53,63.91 381.69,93.48 362.41,115.98C362.163,116.267 361.903,116.273 361.63,116L353.34,107.51C353.071,107.234 353.041,106.8 353.27,106.49Z" style="fill:rgb(255,186,38);fill-rule:nonzero;"/>
    <g transform="matrix(0.707107,-0.707107,0.707107,0.707107,165.36,123.64)">
        <path d="M15.09,-5.96C15.09,-6.23 14.87,-6.45 14.6,-6.45L-14.6,-6.45C-14.87,-6.45 -15.09,-6.23 -15.09,-5.96L-15.09,5.96C-15.09,6.23 -14.87,6.45 -14.6,6.45L14.6,6.45C14.87,6.45 15.09,6.23 15.09,5.96L15.09,-5.96Z" style="fill:rgb(254,129,102);"/>
    </g>
    <path d="M560.02,129.59C560.02,139.849 551.579,148.29 541.32,148.29C531.061,148.29 522.62,139.849 522.62,129.59C522.62,119.331 531.061,110.89 541.32,110.89C551.579,110.89 560.02,119.331 560.02,129.59ZM547.03,129.59C547.03,126.441 544.439,123.85 541.29,123.85C538.141,123.85 535.55,126.441 535.55,129.59C535.55,132.739 538.141,135.33 541.29,135.33C544.439,135.33 547.03,132.739 547.03,129.59Z" style="fill:rgb(66,103,239);fill-rule:nonzero;"/>
    <circle cx="697.65" cy="118.55" r="6.93" style="fill:rgb(254,129,102);"/>
    <circle cx="272.09" cy="179.28" r="6.92" style="fill:rgb(53,212,172);"/>
    <g transform="matrix(0.974761,0.22325,-0.22325,0.974761,419.31,191.78)">
        <path d="M15.06,-6.07C15.06,-6.274 14.894,-6.44 14.69,-6.44L-14.69,-6.44C-14.894,-6.44 -15.06,-6.274 -15.06,-6.07L-15.06,6.07C-15.06,6.274 -14.894,6.44 -14.69,6.44L14.69,6.44C14.894,6.44 15.06,6.274 15.06,6.07L15.06,-6.07Z" style="fill:rgb(254,129,102);"/>
    </g>
    <path d="M112.26,215.75C112.265,215.751 112.269,215.753 112.274,215.754C112.649,215.876 112.857,216.29 112.733,216.671C112.732,216.674 112.731,216.677 112.73,216.68C107.7,231.39 89.84,237.07 77.2,227.62C69.54,221.893 66.663,213.707 68.57,203.06C68.627,202.742 68.907,202.509 69.229,202.509C69.297,202.509 69.365,202.52 69.43,202.54L80.44,205.88C80.799,205.989 81.026,206.349 80.97,206.72C79.41,216.69 89.99,223.67 98,216.38C99.09,215.39 99.9,213.94 100.78,212.6C100.953,212.327 101.197,212.24 101.51,212.34L112.26,215.75Z" style="fill:rgb(250,119,150);fill-rule:nonzero;"/>
    <g transform="matrix(0.949972,-0.312335,0.312335,0.949972,618.51,214.74)">
        <path d="M15.04,-6.22C15.04,-6.369 14.919,-6.49 14.77,-6.49L-14.77,-6.49C-14.919,-6.49 -15.04,-6.369 -15.04,-6.22L-15.04,6.22C-15.04,6.369 -14.919,6.49 -14.77,6.49L14.77,6.49C14.919,6.49 15.04,6.369 15.04,6.22L15.04,-6.22Z" style="fill:rgb(41,223,222);"/>
    </g>
    <path d="M0,286.71L0,255.2L0.29,253.87C0.39,253.417 0.63,253.323 1.01,253.59C13,261.9 14.35,280.37 0,286.71Z" style="fill:rgb(41,223,222);fill-rule:nonzero;"/>
    <g transform="matrix(0.707107,-0.707107,0.707107,0.707107,260.31,276.19)">
        <path d="M6.36,-14.67C6.36,-14.913 6.163,-15.11 5.92,-15.11L-5.92,-15.11C-6.163,-15.11 -6.36,-14.913 -6.36,-14.67L-6.36,14.67C-6.36,14.913 -6.163,15.11 -5.92,15.11L5.92,15.11C6.163,15.11 6.36,14.913 6.36,14.67L6.36,-14.67Z" style="fill:rgb(66,103,239);"/>
    </g>
    <path d="M736,267.57L736,281.3L735.71,282.71C735.63,283.09 735.453,283.143 735.18,282.87L725.68,273.27C725.38,272.97 725.38,272.673 725.68,272.38L734.4,263.86C734.867,263.4 735.167,263.49 735.3,264.13L736,267.57Z" style="fill:rgb(250,119,150);fill-rule:nonzero;"/>
    <path d="M443.15,302.81C442.879,302.606 442.72,302.286 442.72,301.947C442.72,301.664 442.831,301.392 443.03,301.19L450.62,293.47C450.893,293.19 451.203,293.14 451.55,293.32C458.97,297.193 464.377,296.11 467.77,290.07C470.02,286.04 468.94,282.01 466.28,278.6C466.088,278.354 466.11,278 466.33,277.78L474.68,269.48C474.688,269.472 474.696,269.465 474.704,269.457C474.947,269.236 475.333,269.257 475.558,269.505C475.566,269.513 475.573,269.521 475.58,269.53C494.45,292.3 467.31,320.73 443.15,302.81Z" style="fill:rgb(41,223,222);fill-rule:nonzero;"/>
    <circle cx="618.94" cy="304.51" r="6.92" style="fill:rgb(190,96,209);"/>
    <g transform="matrix(0.940288,-0.34038,0.34038,0.940288,108.34,331.63)">
        <path d="M15.04,-5.8C15.04,-6.17 14.74,-6.47 14.37,-6.47L-14.37,-6.47C-14.74,-6.47 -15.04,-6.17 -15.04,-5.8L-15.04,5.8C-15.04,6.17 -14.74,6.47 -14.37,6.47L14.37,6.47C14.74,6.47 15.04,6.17 15.04,5.8L15.04,-5.8Z" style="fill:rgb(53,212,172);"/>
    </g>
    <path d="M383.86,372.75C383.86,383.019 375.409,391.47 365.14,391.47C354.871,391.47 346.42,383.019 346.42,372.75C346.42,362.481 354.871,354.03 365.14,354.03C375.409,354.03 383.86,362.481 383.86,372.75ZM370.83,372.75C370.83,369.623 368.257,367.05 365.13,367.05C362.003,367.05 359.43,369.623 359.43,372.75C359.43,375.877 362.003,378.45 365.13,378.45C368.257,378.45 370.83,375.877 370.83,372.75Z" style="fill:rgb(53,212,172);fill-rule:nonzero;"/>
    <path d="M644.65,386.42C644.11,385.873 644.13,385.347 644.71,384.84C666.57,365.71 696.76,395.56 677.01,417.53C677.005,417.536 676.999,417.542 676.994,417.548C676.651,417.911 676.067,417.925 675.7,417.579C675.693,417.573 675.687,417.567 675.68,417.56L667.73,409.57C667.47,409.31 667.447,409.03 667.66,408.73C675.42,398 663.38,386.34 653.25,394.34C652.943,394.587 652.65,394.57 652.37,394.29L644.65,386.42Z" style="fill:rgb(255,186,38);fill-rule:nonzero;"/>
    <circle cx="258.01" cy="398.37" r="6.93" style="fill:rgb(255,186,38);"/>
    <circle cx="45.58" cy="413.11" r="6.91" style="fill:rgb(254,129,102);"/>
    <g transform="matrix(0.70834,-0.705872,0.705872,0.70834,479.78,425.72)">
        <path d="M15.03,-5.7C15.03,-6.114 14.694,-6.45 14.28,-6.45L-14.28,-6.45C-14.694,-6.45 -15.03,-6.114 -15.03,-5.7L-15.03,5.7C-15.03,6.114 -14.694,6.45 -14.28,6.45L14.28,6.45C14.694,6.45 15.03,6.114 15.03,5.7L15.03,-5.7Z" style="fill:rgb(254,129,102);"/>
    </g>
    <path d="M165.9,443.11C165.9,453.369 157.459,461.81 147.2,461.81C136.941,461.81 128.5,453.369 128.5,443.11C128.5,432.851 136.941,424.41 147.2,424.41C157.459,424.41 165.9,432.851 165.9,443.11ZM152.93,443.06C152.93,439.911 150.339,437.32 147.19,437.32C144.041,437.32 141.45,439.911 141.45,443.06C141.45,446.209 144.041,448.8 147.19,448.8C150.339,448.8 152.93,446.209 152.93,443.06Z" style="fill:rgb(250,119,150);fill-rule:nonzero;"/>
    <path d="M0,467.43L0,458.45L0.4,457.59C0.58,457.197 0.797,457.173 1.05,457.52L5.65,463.89C5.905,464.242 5.838,464.738 5.5,465.01L1.06,468.55C0.693,468.843 0.437,468.767 0.29,468.32L0,467.43Z" style="fill:rgb(255,186,38);fill-rule:nonzero;"/>
    <circle cx="586.48" cy="481.34" r="6.92" style="fill:rgb(66,103,239);"/>
    <g transform="matrix(0.799685,-0.60042,0.60042,0.799685,244.28,499.34)">
        <path d="M6.46,-14.46C6.46,-14.797 6.187,-15.07 5.85,-15.07L-5.85,-15.07C-6.187,-15.07 -6.46,-14.797 -6.46,-14.46L-6.46,14.46C-6.46,14.797 -6.187,15.07 -5.85,15.07L5.85,15.07C6.187,15.07 6.46,14.797 6.46,14.46L6.46,-14.46Z" style="fill:rgb(53,212,172);"/>
    </g>
    <path d="M736,487.94L736,500.86L718.04,496.8C717.816,496.751 717.655,496.551 717.655,496.321C717.655,496.28 717.66,496.24 717.67,496.2L720.35,484.76C720.437,484.407 720.657,484.273 721.01,484.36L736,487.94Z" style="fill:rgb(254,129,102);fill-rule:nonzero;"/>
    <path d="M427.19,518.66C417.56,546.42 376.04,534.35 383.21,504.87C383.283,504.583 383.46,504.483 383.74,504.57L395.09,508C395.437,508.107 395.583,508.34 395.53,508.7C394.597,514.927 396.847,519.023 402.28,520.99C408.21,523.14 412.17,519.33 415.05,514.66C415.257,514.32 415.547,514.21 415.92,514.33L426.79,517.84C426.794,517.841 426.798,517.842 426.801,517.844C427.129,517.954 427.305,518.319 427.193,518.652C427.192,518.655 427.191,518.657 427.19,518.66Z" style="fill:rgb(190,96,209);fill-rule:nonzero;"/>
    <g transform="matrix(0.949425,-0.313992,0.313992,0.949425,82.44,524.45)">
        <path d="M15.06,-6C15.06,-6.254 14.854,-6.46 14.6,-6.46L-14.6,-6.46C-14.854,-6.46 -15.06,-6.254 -15.06,-6L-15.06,6C-15.06,6.254 -14.854,6.46 -14.6,6.46L14.6,6.46C14.854,6.46 15.06,6.254 15.06,6L15.06,-6Z" style="fill:rgb(66,103,239);"/>
    </g>
    <path d="M640.93,552L631.21,552C627.06,551.48 625.1,550.54 620.92,552L607.32,552C611.2,533.34 636.99,533.58 643.31,551.09C643.43,551.437 643.31,551.637 642.95,551.69L640.93,552Z" style="fill:rgb(41,223,222);fill-rule:nonzero;"/>
</svg>
